<svg xmlns="http://www.w3.org/2000/svg" width="88.442" height="107.484" viewBox="0 0 88.442 107.484">
  <g id="그룹_11078" data-name="그룹 11078" transform="translate(-1034 -4465.064)">
    <g id="그룹_11068" data-name="그룹 11068" transform="translate(1034 4473.089)">
      <g id="그룹_11067" data-name="그룹 11067" transform="translate(0 0)">
        <g id="그룹_11058" data-name="그룹 11058" transform="translate(26.348)">
          <path id="패스_1962" data-name="패스 1962" d="M2277.705,1616.91c1.262,1.447,2.352,2.7,4.538,2.7s3.276-1.25,4.538-2.7c1.4-1.608,2.993-3.43,6.154-3.43s4.75,1.823,6.153,3.431c1.262,1.447,2.353,2.7,4.538,2.7s3.275-1.25,4.537-2.7a12.066,12.066,0,0,1,2.645-2.462,44.317,44.317,0,0,0-35.75,0A12.094,12.094,0,0,1,2277.705,1616.91Z" transform="translate(-2275.057 -1610.682)" fill="#0077ed"/>
        </g>
        <g id="그룹_11059" data-name="그룹 11059" transform="translate(12.454 68.864)">
          <path id="패스_1963" data-name="패스 1963" d="M2293.236,1841.595c-2.954-.116-4.489-1.866-5.845-3.42-1.262-1.447-2.352-2.7-4.537-2.7s-3.275,1.25-4.537,2.7c-1.4,1.608-2.993,3.43-6.153,3.43s-4.75-1.822-6.153-3.43c-1.262-1.447-2.352-2.7-4.538-2.7s-3.275,1.25-4.537,2.7c-1.4,1.608-2.993,3.43-6.154,3.43s-4.751-1.822-6.154-3.43c-1.262-1.447-2.352-2.7-4.538-2.7s-3.275,1.25-4.538,2.7c-1.357,1.555-2.893,3.305-5.85,3.42a44.428,44.428,0,0,0,5.292,4.663,6.742,6.742,0,0,1,5.1-2.27c3.16,0,4.75,1.823,6.154,3.431,1.262,1.447,2.352,2.7,4.538,2.7s3.276-1.25,4.538-2.7c1.4-1.608,2.993-3.431,6.154-3.431s4.75,1.823,6.154,3.431c1.262,1.447,2.352,2.7,4.538,2.7s3.275-1.25,4.537-2.7c1.4-1.608,2.993-3.431,6.153-3.431a6.74,6.74,0,0,1,5.093,2.268A44.459,44.459,0,0,0,2293.236,1841.595Z" transform="translate(-2229.703 -1835.479)" fill="#0077ed"/>
        </g>
        <g id="그룹_11060" data-name="그룹 11060" transform="translate(2.283 58.21)">
          <path id="패스_1964" data-name="패스 1964" d="M2276.665,1803.4c-1.4,1.608-2.993,3.431-6.153,3.431s-4.75-1.823-6.153-3.431c-1.262-1.447-2.352-2.7-4.537-2.7s-3.275,1.249-4.537,2.7c-1.4,1.608-2.993,3.431-6.153,3.431s-4.751-1.823-6.153-3.431c-1.263-1.447-2.352-2.7-4.538-2.7s-3.276,1.249-4.538,2.7c-1.4,1.608-2.993,3.431-6.154,3.431s-4.751-1.823-6.154-3.431c-1.262-1.447-2.352-2.7-4.537-2.7s-3.276,1.249-4.538,2.7c-1.4,1.608-2.993,3.431-6.154,3.431s-4.751-1.823-6.154-3.431c-1.093-1.252-2.058-2.354-3.714-2.629a44.145,44.145,0,0,0,7.858,14.123,4.424,4.424,0,0,0,2.01.446c2.185,0,3.275-1.249,4.538-2.7,1.4-1.608,2.993-3.431,6.154-3.431s4.75,1.822,6.153,3.431c1.262,1.447,2.353,2.7,4.538,2.7s3.276-1.249,4.538-2.7c1.4-1.608,2.993-3.431,6.154-3.431s4.75,1.822,6.153,3.431c1.262,1.447,2.352,2.7,4.538,2.7s3.275-1.249,4.537-2.7c1.4-1.608,2.993-3.431,6.153-3.431s4.75,1.823,6.153,3.431c1.262,1.447,2.352,2.7,4.537,2.7a4.421,4.421,0,0,0,2-.444,44.145,44.145,0,0,0,7.86-14.125C2278.721,1801.044,2277.757,1802.146,2276.665,1803.4Z" transform="translate(-2196.499 -1800.701)" fill="#0077ed"/>
        </g>
        <g id="그룹_11061" data-name="그룹 11061" transform="translate(19.521 79.518)">
          <path id="패스_1965" data-name="패스 1965" d="M2298.857,1870.257c-2.185,0-3.275,1.249-4.537,2.7-1.4,1.608-2.993,3.431-6.152,3.431s-4.75-1.823-6.153-3.431c-1.262-1.447-2.353-2.7-4.538-2.7s-3.275,1.249-4.537,2.7c-1.4,1.608-2.993,3.431-6.154,3.431s-4.751-1.823-6.154-3.431c-1.262-1.447-2.352-2.7-4.538-2.7a4.544,4.544,0,0,0-3.32,1.388,43.979,43.979,0,0,0,22.471,7.48,7.125,7.125,0,0,1,4.463,0,43.982,43.982,0,0,0,22.467-7.482A4.542,4.542,0,0,0,2298.857,1870.257Z" transform="translate(-2252.773 -1870.257)" fill="#0077ed"/>
        </g>
        <g id="그룹_11062" data-name="그룹 11062" transform="translate(0 36.903)">
          <path id="패스_1966" data-name="패스 1966" d="M2276.9,1731.22a4.953,4.953,0,0,0-.862-.074c-2.185,0-3.275,1.25-4.538,2.7-1.4,1.608-2.993,3.43-6.154,3.43s-4.75-1.823-6.153-3.43c-1.262-1.447-2.352-2.7-4.537-2.7s-3.275,1.25-4.537,2.7c-1.4,1.608-2.992,3.43-6.153,3.43s-4.75-1.823-6.153-3.43c-1.262-1.447-2.352-2.7-4.538-2.7s-3.275,1.25-4.537,2.7c-1.4,1.608-2.993,3.43-6.154,3.43s-4.75-1.823-6.154-3.43c-1.262-1.447-2.352-2.7-4.538-2.7s-3.275,1.25-4.538,2.7c-1.4,1.608-2.994,3.43-6.154,3.43s-4.751-1.823-6.154-3.43c-1.263-1.447-2.353-2.7-4.539-2.7a5,5,0,0,0-.864.074,44.526,44.526,0,0,0-.594,7.244c0,.447.009.891.022,1.334a7.161,7.161,0,0,1,1.436-.143c3.161,0,4.751,1.823,6.154,3.431,1.262,1.447,2.353,2.7,4.538,2.7s3.276-1.249,4.538-2.7c1.4-1.608,2.993-3.431,6.154-3.431s4.75,1.823,6.154,3.431c1.262,1.447,2.353,2.7,4.538,2.7s3.276-1.249,4.538-2.7c1.4-1.608,2.994-3.431,6.154-3.431s4.75,1.823,6.153,3.431c1.263,1.447,2.353,2.7,4.538,2.7s3.275-1.249,4.537-2.7c1.4-1.608,2.993-3.431,6.153-3.431s4.75,1.823,6.153,3.431c1.262,1.447,2.352,2.7,4.536,2.7s3.275-1.249,4.538-2.7c1.4-1.608,2.993-3.431,6.153-3.431a7.146,7.146,0,0,1,1.434.143c.013-.443.022-.888.022-1.334A44.526,44.526,0,0,0,2276.9,1731.22Z" transform="translate(-2189.048 -1731.146)" fill="#0077ed"/>
        </g>
        <g id="그룹_11063" data-name="그룹 11063" transform="translate(1.015 26.249)">
          <path id="패스_1967" data-name="패스 1967" d="M2273.794,1699.065c-1.4,1.608-2.993,3.43-6.153,3.43s-4.75-1.822-6.153-3.431c-1.262-1.447-2.352-2.7-4.537-2.7s-3.275,1.249-4.537,2.7c-1.4,1.608-2.993,3.431-6.153,3.431s-4.751-1.822-6.154-3.431c-1.262-1.447-2.352-2.7-4.538-2.7s-3.275,1.249-4.537,2.7c-1.4,1.608-2.993,3.431-6.154,3.431s-4.75-1.822-6.154-3.43c-1.262-1.447-2.352-2.7-4.538-2.7s-3.276,1.249-4.538,2.7c-1.4,1.608-2.993,3.43-6.154,3.43s-4.751-1.822-6.154-3.43a9.025,9.025,0,0,0-2.411-2.189,43.867,43.867,0,0,0-2.571,8.018c.145-.008.291-.016.443-.016,3.161,0,4.751,1.823,6.154,3.431,1.262,1.447,2.353,2.7,4.539,2.7s3.276-1.249,4.538-2.7c1.4-1.608,2.994-3.431,6.154-3.431s4.75,1.823,6.154,3.431c1.262,1.447,2.353,2.7,4.538,2.7s3.276-1.249,4.538-2.7c1.4-1.608,2.993-3.431,6.154-3.431s4.75,1.823,6.153,3.431c1.263,1.447,2.353,2.7,4.538,2.7s3.275-1.249,4.537-2.7c1.4-1.608,2.993-3.431,6.153-3.431s4.75,1.823,6.153,3.431c1.262,1.447,2.352,2.7,4.537,2.7s3.275-1.249,4.538-2.7c1.4-1.608,2.994-3.431,6.154-3.431.152,0,.3.008.441.016a43.872,43.872,0,0,0-2.57-8.017A9.035,9.035,0,0,0,2273.794,1699.065Z" transform="translate(-2192.361 -1696.368)" fill="#0077ed"/>
        </g>
        <g id="그룹_11064" data-name="그룹 11064" transform="translate(0.139 47.557)">
          <path id="패스_1968" data-name="패스 1968" d="M2196.975,1777.864c1.262,1.447,2.353,2.7,4.538,2.7s3.276-1.249,4.538-2.7c1.4-1.608,2.993-3.431,6.154-3.431s4.751,1.823,6.154,3.431c1.262,1.447,2.352,2.7,4.538,2.7s3.276-1.249,4.538-2.7c1.4-1.608,2.993-3.431,6.153-3.431s4.75,1.823,6.154,3.431c1.262,1.447,2.352,2.7,4.538,2.7s3.275-1.249,4.537-2.7c1.4-1.608,2.993-3.431,6.153-3.431s4.75,1.823,6.153,3.431c1.262,1.447,2.352,2.7,4.536,2.7s3.275-1.249,4.538-2.7c1.38-1.582,2.944-3.366,6-3.425a44.071,44.071,0,0,0,1.47-8.335,4.691,4.691,0,0,0-1.317-.18c-2.186,0-3.276,1.25-4.538,2.7-1.4,1.608-2.993,3.431-6.154,3.431s-4.75-1.823-6.153-3.431c-1.262-1.447-2.352-2.7-4.537-2.7s-3.275,1.25-4.537,2.7c-1.4,1.608-2.993,3.431-6.153,3.431s-4.75-1.823-6.153-3.431c-1.263-1.447-2.353-2.7-4.538-2.7s-3.275,1.25-4.538,2.7c-1.4,1.608-2.993,3.431-6.154,3.431s-4.751-1.823-6.154-3.431c-1.262-1.447-2.352-2.7-4.538-2.7s-3.276,1.25-4.538,2.7c-1.4,1.608-2.993,3.431-6.154,3.431s-4.751-1.823-6.154-3.431c-1.262-1.447-2.353-2.7-4.539-2.7a4.709,4.709,0,0,0-1.318.18,44.052,44.052,0,0,0,1.469,8.335C2194.03,1774.5,2195.595,1776.282,2196.975,1777.864Z" transform="translate(-2189.502 -1765.924)" fill="#0077ed"/>
        </g>
        <g id="그룹_11065" data-name="그룹 11065" transform="translate(4.485 15.595)">
          <path id="패스_1969" data-name="패스 1969" d="M2206.816,1673.531c1.262,1.447,2.353,2.7,4.538,2.7s3.276-1.249,4.538-2.7c1.4-1.608,2.993-3.431,6.154-3.431s4.751,1.823,6.154,3.431c1.262,1.447,2.353,2.7,4.538,2.7s3.276-1.249,4.538-2.7c1.4-1.608,2.993-3.431,6.153-3.431s4.751,1.823,6.154,3.431c1.262,1.447,2.352,2.7,4.538,2.7s3.275-1.249,4.537-2.7c1.4-1.608,2.993-3.431,6.153-3.431s4.75,1.823,6.153,3.431c1.262,1.447,2.352,2.7,4.536,2.7s3.275-1.249,4.538-2.7a10.746,10.746,0,0,1,3.125-2.735,44.079,44.079,0,0,0-2.889-5.032,6.589,6.589,0,0,1-4.773,1.954c-3.16,0-4.75-1.823-6.153-3.431-1.262-1.447-2.352-2.7-4.537-2.7s-3.275,1.249-4.537,2.7c-1.4,1.608-2.993,3.431-6.152,3.431s-4.75-1.823-6.153-3.431c-1.262-1.447-2.352-2.7-4.538-2.7s-3.275,1.249-4.537,2.7c-1.4,1.608-2.993,3.431-6.154,3.431s-4.751-1.823-6.154-3.431c-1.262-1.447-2.352-2.7-4.538-2.7s-3.275,1.249-4.538,2.7c-1.4,1.608-2.993,3.431-6.154,3.431a6.59,6.59,0,0,1-4.776-1.956,44.177,44.177,0,0,0-2.889,5.033A10.745,10.745,0,0,1,2206.816,1673.531Z" transform="translate(-2203.689 -1661.591)" fill="#0077ed"/>
        </g>
        <g id="그룹_11066" data-name="그룹 11066" transform="translate(8.622 4.942)">
          <path id="패스_1970" data-name="패스 1970" d="M2269.639,1629.509c-1.4,1.608-2.993,3.431-6.152,3.431s-4.751-1.823-6.154-3.431c-1.262-1.447-2.353-2.7-4.538-2.7s-3.276,1.249-4.538,2.7c-1.4,1.608-2.993,3.431-6.154,3.431s-4.751-1.823-6.154-3.431c-1.076-1.233-2.03-2.32-3.641-2.615a44.421,44.421,0,0,0-15.118,12.965,4.666,4.666,0,0,0,3.529,1.591c2.186,0,3.276-1.25,4.538-2.7,1.4-1.608,2.994-3.431,6.154-3.431s4.75,1.823,6.154,3.431c1.262,1.447,2.353,2.7,4.538,2.7s3.276-1.25,4.538-2.7c1.4-1.608,2.993-3.431,6.154-3.431s4.75,1.823,6.153,3.431c1.263,1.447,2.353,2.7,4.538,2.7s3.275-1.25,4.537-2.7c1.4-1.608,2.993-3.431,6.153-3.431s4.75,1.823,6.153,3.431c1.262,1.447,2.352,2.7,4.536,2.7a4.665,4.665,0,0,0,3.527-1.589,44.416,44.416,0,0,0-15.117-12.966C2271.667,1627.191,2270.714,1628.277,2269.639,1629.509Z" transform="translate(-2217.192 -1626.813)" fill="#0077ed"/>
        </g>
      </g>
    </g>
    <rect id="사각형_1912" data-name="사각형 1912" width="25" height="72" rx="11" transform="translate(1044 4494.064)" fill="#fff"/>
    <rect id="사각형_1913" data-name="사각형 1913" width="24" height="71" rx="11" transform="translate(1073 4484.064)" fill="#fff"/>
    <g id="그룹_11053" data-name="그룹 11053" transform="translate(1043.179 4502.189)">
      <path id="패스_1961" data-name="패스 1961" d="M2019.406,1685.4c-7.248,0-13.145-3.6-13.145-8.021v-57.939h1.168v57.939c0,3.779,5.373,6.853,11.976,6.853s11.976-3.074,11.976-6.853v-57.939h1.168v57.939C2032.551,1681.8,2026.654,1685.4,2019.406,1685.4Z" transform="translate(-2006.262 -1619.438)" stroke="#000" stroke-width="0.6"/>
    </g>
    <g id="그룹_11052" data-name="그룹 11052" transform="translate(1043.179 4494.168)">
      <path id="패스_1960" data-name="패스 1960" d="M2019.406,1601.154c-7.248,0-13.145-3.6-13.145-8.021s5.9-8.021,13.145-8.021,13.144,3.6,13.144,8.021S2026.654,1601.154,2019.406,1601.154Zm0-14.874c-6.6,0-11.976,3.074-11.976,6.853s5.373,6.853,11.976,6.853,11.976-3.074,11.976-6.853S2026.01,1586.281,2019.406,1586.281Z" transform="translate(-2006.262 -1585.112)" stroke="#000" stroke-width="0.6"/>
    </g>
    <g id="타원_251" data-name="타원 251" transform="translate(1044 4477.064)" fill="#fff" stroke="#000" stroke-width="2">
      <circle cx="12.5" cy="12.5" r="12.5" stroke="none"/>
      <circle cx="12.5" cy="12.5" r="11.5" fill="none"/>
    </g>
    <g id="그룹_11056" data-name="그룹 11056" transform="translate(1072.545 4465)">
      <g id="그룹_11055" data-name="그룹 11055" transform="translate(0 19.321)">
        <g id="그룹_11052-2" data-name="그룹 11052" transform="translate(0 0)">
          <path id="패스_1960-2" data-name="패스 1960" d="M2018.859,1600.487c-6.946,0-12.6-3.449-12.6-7.687s5.651-7.687,12.6-7.687,12.6,3.449,12.6,7.687S2025.806,1600.487,2018.859,1600.487Zm0-14.255c-6.329,0-11.478,2.946-11.478,6.568s5.149,6.567,11.478,6.567,11.477-2.946,11.477-6.567S2025.188,1586.232,2018.859,1586.232Z" transform="translate(-2006.262 -1585.112)" stroke="#000" stroke-width="0.6"/>
        </g>
        <g id="그룹_11053-2" data-name="그룹 11053" transform="translate(0 7.687)">
          <path id="패스_1961-2" data-name="패스 1961" d="M2018.859,1682.652c-6.946,0-12.6-3.448-12.6-7.687v-55.527h1.12v55.527c0,3.621,5.149,6.568,11.478,6.568s11.477-2.946,11.477-6.568v-55.527h1.12v55.527C2031.457,1679.2,2025.806,1682.652,2018.859,1682.652Z" transform="translate(-2006.262 -1619.438)" stroke="#000" stroke-width="0.6"/>
        </g>
      </g>
      <g id="타원_252" data-name="타원 252" transform="translate(0.455 0.064)" fill="#fff" stroke="#000" stroke-width="2">
        <circle cx="12.5" cy="12.5" r="12.5" stroke="none"/>
        <circle cx="12.5" cy="12.5" r="11.5" fill="none"/>
      </g>
    </g>
    <g id="그룹_11069" data-name="그룹 11069" transform="translate(1090.602 4507.833)">
      <rect id="사각형_1911" data-name="사각형 1911" width="23" height="59" rx="11" transform="translate(-0.602 -0.769)" fill="#fff"/>
    </g>
    <g id="그룹_11055-2" data-name="그룹 11055" transform="translate(1089.393 4506.751)">
      <g id="그룹_11052-3" data-name="그룹 11052" transform="translate(0 0)">
        <path id="패스_1960-3" data-name="패스 1960" d="M2017.881,1599.293c-6.407,0-11.619-3.181-11.619-7.09s5.213-7.09,11.619-7.09,11.619,3.181,11.619,7.09S2024.288,1599.293,2017.881,1599.293Zm0-13.148c-5.837,0-10.587,2.718-10.587,6.058s4.749,6.058,10.587,6.058,10.586-2.718,10.586-6.058S2023.719,1586.145,2017.881,1586.145Z" transform="translate(-2006.262 -1585.112)" stroke="#000" stroke-width="0.8"/>
      </g>
      <g id="그룹_11053-3" data-name="그룹 11053" transform="translate(0 7.091)">
        <path id="패스_1961-3" data-name="패스 1961" d="M2017.881,1677.745c-6.407,0-11.619-3.181-11.619-7.09v-51.216h1.033v51.216c0,3.34,4.749,6.057,10.587,6.057s10.586-2.717,10.586-6.057v-51.216h1.033v51.216C2029.5,1674.564,2024.288,1677.745,2017.881,1677.745Z" transform="translate(-2006.262 -1619.438)" stroke="#000" stroke-width="0.8"/>
      </g>
    </g>
    <g id="타원_253" data-name="타원 253" transform="translate(1088 4488.064)" fill="#fff" stroke="#000" stroke-width="2">
      <ellipse cx="13" cy="12.5" rx="13" ry="12.5" stroke="none"/>
      <ellipse cx="13" cy="12.5" rx="12" ry="11.5" fill="none"/>
    </g>
  </g>
</svg>
