<svg xmlns="http://www.w3.org/2000/svg" width="137.018" height="126.795" viewBox="0 0 137.018 126.795">
  <g id="그룹_11081" data-name="그룹 11081" transform="translate(-710.5 -4471.977)">
    <g id="그룹_11029" data-name="그룹 11029" transform="translate(22 25.265)">
      <g id="그룹_11023" data-name="그룹 11023" transform="translate(702.849 4479.556)">
        <path id="패스_1947" data-name="패스 1947" d="M2566.333,4343.784l34.029,9.594,36.427,18.289-35.228-7.645Z" transform="translate(-2519.84 -4340.732)" fill="#0077ed" opacity="0.33"/>
        <g id="그룹_11022" data-name="그룹 11022" transform="translate(0 0)">
          <path id="패스_1946" data-name="패스 1946" d="M2594.4,4525.549l40.11-22.284,39.553,22.284-39.553,22.84Z" transform="translate(-2592.684 -4501.414)" fill="#0077ed"/>
          <g id="그룹_11021" data-name="그룹 11021" transform="translate(0 0)">
            <g id="그룹_11020" data-name="그룹 11020" transform="translate(0 0)">
              <g id="그룹_11017" data-name="그룹 11017" transform="translate(0 22.538)">
                <path id="패스_1942" data-name="패스 1942" d="M-249.674,568.078a1.086,1.086,0,0,1-.522-.134l-40.646-22.236a1.088,1.088,0,0,1-.566-.955v-47a1.089,1.089,0,0,1,.533-.937,1.088,1.088,0,0,1,1.077-.019l40.646,22.237a1.088,1.088,0,0,1,.566.955v47a1.089,1.089,0,0,1-.533.936A1.087,1.087,0,0,1-249.674,568.078Zm-39.557-23.97,38.468,21.046V520.636l-38.468-21.045Z" transform="translate(291.408 -496.665)"/>
              </g>
              <g id="그룹_11018" data-name="그룹 11018" transform="translate(40.645 22.538)">
                <path id="패스_1943" data-name="패스 1943" d="M-196.971,568.078a1.089,1.089,0,0,1-.555-.152,1.089,1.089,0,0,1-.533-.936v-47a1.088,1.088,0,0,1,.566-.955l40.645-22.237a1.089,1.089,0,0,1,1.078.019,1.09,1.09,0,0,1,.533.937v47a1.089,1.089,0,0,1-.566.955l-40.646,22.236A1.087,1.087,0,0,1-196.971,568.078Zm1.089-47.442v44.518l38.469-21.046V499.59Z" transform="translate(198.06 -496.665)"/>
              </g>
              <g id="그룹_11019" data-name="그룹 11019" transform="translate(0 0)">
                <path id="패스_1944" data-name="패스 1944" d="M-249.674,491.855a1.084,1.084,0,0,1-.522-.134l-40.646-22.236a1.088,1.088,0,0,1-.566-.952,1.088,1.088,0,0,1,.56-.955l40.646-22.539a1.09,1.09,0,0,1,1.053,0l40.646,22.387a1.089,1.089,0,0,1,.563.954,1.089,1.089,0,0,1-.563.954l-40.646,22.387A1.085,1.085,0,0,1-249.674,491.855Zm-38.389-23.331,38.388,21,38.391-21.146-38.388-21.144Z" transform="translate(291.408 -444.903)"/>
              </g>
            </g>
            <path id="패스_1945" data-name="패스 1945" d="M-115.61,479.141l-.057,12.816-39.131-7.7V469.783l39.188,9.357L-157.6,458.165l-37.749-10.9v43.595" transform="translate(237.174 -446.234)" fill="none" stroke="#000" stroke-linecap="round" stroke-linejoin="round" stroke-width="2.2"/>
            <line id="선_552" data-name="선 552" y2="9.078" transform="translate(80.365 12.722)" fill="none" stroke="#000" stroke-linecap="round" stroke-linejoin="round" stroke-width="2.5"/>
          </g>
        </g>
      </g>
      <g id="그룹_11010" data-name="그룹 11010" transform="translate(773.916 4460.81) rotate(56)">
        <g id="그룹_11001" data-name="그룹 11001" transform="translate(7.362)">
          <g id="그룹_11000" data-name="그룹 11000" transform="translate(0 0)">
            <g id="그룹_10998" data-name="그룹 10998">
              <path id="패스_1930" data-name="패스 1930" d="M1.011,5.029A1.011,1.011,0,0,1,0,4.018V1.011a1.011,1.011,0,0,1,2.022,0V4.018A1.011,1.011,0,0,1,1.011,5.029Z" fill="#0077ed"/>
            </g>
            <g id="그룹_10999" data-name="그룹 10999" transform="translate(0 14.233)">
              <path id="패스_1931" data-name="패스 1931" d="M1.011,5.029A1.011,1.011,0,0,1,0,4.018V1.011a1.011,1.011,0,1,1,2.022,0V4.018A1.011,1.011,0,0,1,1.011,5.029Z" fill="#0077ed"/>
            </g>
          </g>
        </g>
        <g id="그룹_11005" data-name="그룹 11005" transform="translate(0 4.495)">
          <g id="그룹_11004" data-name="그룹 11004" transform="translate(0 0)">
            <g id="그룹_11002" data-name="그룹 11002" transform="translate(0 7.116)">
              <path id="패스_1932" data-name="패스 1932" d="M1.012,3.526A1.011,1.011,0,0,1,.506,1.639l2.6-1.5A1.011,1.011,0,0,1,4.121,1.887l-2.6,1.5A1.008,1.008,0,0,1,1.012,3.526Z" fill="#0077ed"/>
            </g>
            <g id="그룹_11003" data-name="그룹 11003" transform="translate(12.326 0)">
              <path id="패스_1933" data-name="패스 1933" d="M1.012,3.526A1.011,1.011,0,0,1,.506,1.639l2.6-1.5A1.011,1.011,0,0,1,4.121,1.887l-2.6,1.5A1.008,1.008,0,0,1,1.012,3.526Z" fill="#0077ed"/>
            </g>
          </g>
        </g>
        <g id="그룹_11009" data-name="그룹 11009" transform="translate(0.109 4.313)">
          <g id="그룹_11008" data-name="그룹 11008" transform="translate(0 0)">
            <g id="그룹_11006" data-name="그룹 11006" transform="translate(12.326 7.116)">
              <path id="패스_1934" data-name="패스 1934" d="M3.614,3.526a1.006,1.006,0,0,1-.5-.136l-2.6-1.5A1.011,1.011,0,1,1,1.517.136l2.6,1.5a1.011,1.011,0,0,1-.506,1.887Z" fill="#0077ed"/>
            </g>
            <g id="그룹_11007" data-name="그룹 11007">
              <path id="패스_1935" data-name="패스 1935" d="M3.614,3.526a1,1,0,0,1-.5-.136l-2.6-1.5A1.011,1.011,0,0,1,1.517.136l2.6,1.5a1.011,1.011,0,0,1-.507,1.887Z" fill="#0077ed"/>
            </g>
          </g>
        </g>
      </g>
      <g id="그룹_11028" data-name="그룹 11028" transform="translate(732.81 4444.209) rotate(56)">
        <g id="그룹_11001-2" data-name="그룹 11001" transform="translate(7.362)">
          <g id="그룹_11000-2" data-name="그룹 11000" transform="translate(0 0)">
            <g id="그룹_10998-2" data-name="그룹 10998">
              <path id="패스_1930-2" data-name="패스 1930" d="M1.011,5.029A1.011,1.011,0,0,1,0,4.018V1.011a1.011,1.011,0,0,1,2.022,0V4.018A1.011,1.011,0,0,1,1.011,5.029Z" fill="#0077ed"/>
            </g>
            <g id="그룹_10999-2" data-name="그룹 10999" transform="translate(0 14.233)">
              <path id="패스_1931-2" data-name="패스 1931" d="M1.011,5.029A1.011,1.011,0,0,1,0,4.018V1.011a1.011,1.011,0,1,1,2.022,0V4.018A1.011,1.011,0,0,1,1.011,5.029Z" fill="#0077ed"/>
            </g>
          </g>
        </g>
        <g id="그룹_11005-2" data-name="그룹 11005" transform="translate(0 4.495)">
          <g id="그룹_11004-2" data-name="그룹 11004" transform="translate(0 0)">
            <g id="그룹_11002-2" data-name="그룹 11002" transform="translate(0 7.116)">
              <path id="패스_1932-2" data-name="패스 1932" d="M1.012,3.526A1.011,1.011,0,0,1,.506,1.639l2.6-1.5A1.011,1.011,0,0,1,4.121,1.887l-2.6,1.5A1.008,1.008,0,0,1,1.012,3.526Z" fill="#0077ed"/>
            </g>
            <g id="그룹_11003-2" data-name="그룹 11003" transform="translate(12.326 0)">
              <path id="패스_1933-2" data-name="패스 1933" d="M1.012,3.526A1.011,1.011,0,0,1,.506,1.639l2.6-1.5A1.011,1.011,0,0,1,4.121,1.887l-2.6,1.5A1.008,1.008,0,0,1,1.012,3.526Z" fill="#0077ed"/>
            </g>
          </g>
        </g>
        <g id="그룹_11009-2" data-name="그룹 11009" transform="translate(0.109 4.313)">
          <g id="그룹_11008-2" data-name="그룹 11008" transform="translate(0 0)">
            <g id="그룹_11006-2" data-name="그룹 11006" transform="translate(12.326 7.116)">
              <path id="패스_1934-2" data-name="패스 1934" d="M3.614,3.526a1.006,1.006,0,0,1-.5-.136l-2.6-1.5A1.011,1.011,0,1,1,1.517.136l2.6,1.5a1.011,1.011,0,0,1-.506,1.887Z" fill="#0077ed"/>
            </g>
            <g id="그룹_11007-2" data-name="그룹 11007">
              <path id="패스_1935-2" data-name="패스 1935" d="M3.614,3.526a1,1,0,0,1-.5-.136l-2.6-1.5A1.011,1.011,0,0,1,1.517.136l2.6,1.5a1.011,1.011,0,0,1-.507,1.887Z" fill="#0077ed"/>
            </g>
          </g>
        </g>
      </g>
      <g id="그룹_11027" data-name="그룹 11027" transform="translate(689 4526.256)">
        <g id="그룹_11024" data-name="그룹 11024" transform="translate(0 15.81)">
          <path id="패스_1948" data-name="패스 1948" d="M446.955,462.726a3.219,3.219,0,0,1-2.566-1.431c-.552-.64-.9-1-1.63-1s-1.077.362-1.629,1a3.016,3.016,0,0,1-5.132,0c-.552-.64-.9-1-1.629-1s-1.078.362-1.629,1a3.017,3.017,0,0,1-5.132,0c-.552-.64-.9-1-1.63-1s-1.078.362-1.63,1a3.017,3.017,0,0,1-5.132,0c-.552-.64-.9-1-1.63-1s-1.078.362-1.63,1a3.017,3.017,0,0,1-5.133,0c-.552-.64-.9-1-1.63-1s-1.078.362-1.63,1A3.219,3.219,0,0,1,405,462.726a.618.618,0,1,1,0-1.237c.73,0,1.078-.362,1.63-1a3.017,3.017,0,0,1,5.133,0c.552.64.9,1,1.63,1s1.078-.362,1.63-1a3.017,3.017,0,0,1,5.132,0c.552.64.9,1,1.63,1s1.078-.362,1.63-1a3.017,3.017,0,0,1,5.132,0c.552.64.9,1,1.63,1s1.078-.362,1.629-1a3.016,3.016,0,0,1,5.132,0c.552.64.9,1,1.629,1s1.077-.362,1.629-1a3.016,3.016,0,0,1,5.132,0c.552.64.9,1,1.629,1a.618.618,0,1,1,0,1.237Z" transform="translate(-404.38 -459.057)" stroke="#000" stroke-width="1"/>
        </g>
        <g id="그룹_11025" data-name="그룹 11025" transform="translate(0 7.905)">
          <path id="패스_1949" data-name="패스 1949" d="M446.955,418.717a3.219,3.219,0,0,1-2.566-1.431c-.552-.64-.9-1-1.63-1s-1.077.362-1.629,1a3.016,3.016,0,0,1-5.132,0c-.552-.64-.9-1-1.629-1s-1.078.362-1.629,1a3.016,3.016,0,0,1-5.132,0c-.552-.64-.9-1-1.63-1s-1.078.362-1.63,1a3.017,3.017,0,0,1-5.132,0c-.552-.64-.9-1-1.63-1s-1.078.362-1.63,1a3.017,3.017,0,0,1-5.133,0c-.552-.64-.9-1-1.63-1s-1.078.362-1.63,1A3.22,3.22,0,0,1,405,418.717a.618.618,0,1,1,0-1.237c.73,0,1.078-.362,1.63-1a3.017,3.017,0,0,1,5.133,0c.552.64.9,1,1.63,1s1.078-.362,1.63-1a3.017,3.017,0,0,1,5.132,0c.552.64.9,1,1.63,1s1.078-.362,1.63-1a3.017,3.017,0,0,1,5.132,0c.552.64.9,1,1.63,1s1.078-.362,1.629-1a3.016,3.016,0,0,1,5.132,0c.552.64.9,1,1.629,1s1.077-.362,1.629-1a3.016,3.016,0,0,1,5.132,0c.552.64.9,1,1.629,1a.618.618,0,1,1,0,1.237Z" transform="translate(-404.38 -415.048)" stroke="#000" stroke-width="1"/>
        </g>
        <g id="그룹_11026" data-name="그룹 11026" transform="translate(0 0)">
          <path id="패스_1950" data-name="패스 1950" d="M446.955,374.707a3.219,3.219,0,0,1-2.566-1.431c-.552-.64-.9-1-1.63-1s-1.077.362-1.629,1a3.016,3.016,0,0,1-5.132,0c-.552-.64-.9-1-1.629-1s-1.078.362-1.629,1a3.017,3.017,0,0,1-5.132,0c-.552-.64-.9-1-1.63-1s-1.078.362-1.63,1a3.017,3.017,0,0,1-5.132,0c-.552-.64-.9-1-1.63-1s-1.078.362-1.63,1a3.017,3.017,0,0,1-5.133,0c-.552-.64-.9-1-1.63-1s-1.078.362-1.63,1A3.22,3.22,0,0,1,405,374.707a.618.618,0,1,1,0-1.237c.73,0,1.078-.362,1.63-1a3.017,3.017,0,0,1,5.133,0c.552.64.9,1,1.63,1s1.078-.362,1.63-1a3.017,3.017,0,0,1,5.132,0c.552.64.9,1,1.63,1s1.078-.362,1.63-1a3.017,3.017,0,0,1,5.132,0c.552.64.9,1,1.63,1s1.078-.362,1.629-1a3.016,3.016,0,0,1,5.132,0c.552.64.9,1,1.629,1s1.077-.362,1.629-1a3.016,3.016,0,0,1,5.132,0c.552.64.9,1,1.629,1a.618.618,0,1,1,0,1.237Z" transform="translate(-404.38 -371.038)" stroke="#000" stroke-width="1"/>
        </g>
      </g>
    </g>
  </g>
</svg>
