<svg xmlns="http://www.w3.org/2000/svg" width="87.907" height="119.448" viewBox="0 0 87.907 119.448">
  <g id="그룹_11080" data-name="그룹 11080" transform="translate(-418 -4446.9)">
    <g id="그룹_10994" data-name="그룹 10994" transform="translate(418 4413.155)">
      <g id="그룹_10933" data-name="그룹 10933" transform="translate(44.014 67.363) rotate(45)">
        <g id="그룹_10931" data-name="그룹 10931" transform="translate(0 0)">
          <g id="그룹_10930" data-name="그룹 10930">
            <rect id="사각형_1908" data-name="사각형 1908" width="51.374" height="51.374" fill="#0077ed"/>
          </g>
        </g>
      </g>
      <g id="그룹_10929" data-name="그룹 10929" transform="translate(0 54.247)">
        <g id="그룹_10926" data-name="그룹 10926" transform="translate(0 23.737)">
          <path id="패스_1874" data-name="패스 1874" d="M145.822,235.608a1.15,1.15,0,0,1-.55-.14l-42.806-23.419a1.146,1.146,0,0,1-.6-1.006v-49.5a1.146,1.146,0,0,1,1.7-1.006l42.807,23.419a1.146,1.146,0,0,1,.6,1.006v49.5a1.146,1.146,0,0,1-1.146,1.146Zm-41.661-25.245,40.514,22.164V185.643l-40.514-22.164Z" transform="translate(-101.869 -160.399)"/>
        </g>
        <g id="그룹_10927" data-name="그룹 10927" transform="translate(42.807 23.737)">
          <path id="패스_1875" data-name="패스 1875" d="M196.364,235.608a1.146,1.146,0,0,1-1.146-1.146v-49.5a1.147,1.147,0,0,1,.6-1.006l42.807-23.419a1.146,1.146,0,0,1,1.7,1.006v49.5a1.146,1.146,0,0,1-.6,1.006l-42.806,23.419A1.148,1.148,0,0,1,196.364,235.608Zm1.146-49.965v46.885l40.514-22.164V163.479Z" transform="translate(-195.218 -160.399)"/>
        </g>
        <g id="그룹_10928" data-name="그룹 10928" transform="translate(0 0)">
          <path id="패스_1876" data-name="패스 1876" d="M145.822,158.085a1.149,1.149,0,0,1-.55-.14l-42.806-23.419a1.146,1.146,0,0,1-.006-2.009l42.807-23.737a1.148,1.148,0,0,1,1.109,0l42.807,23.578a1.147,1.147,0,0,1,0,2.009l-42.807,23.578A1.143,1.143,0,0,1,145.822,158.085Zm-40.431-24.572,40.429,22.118,40.432-22.27-40.429-22.268Z" transform="translate(-101.869 -108.636)"/>
        </g>
      </g>
      <g id="그룹_10993" data-name="그룹 10993" transform="translate(36.314 33.745)">
        <g id="그룹_10991" data-name="그룹 10991" transform="translate(0 6.019)">
          <rect id="사각형_1909" data-name="사각형 1909" width="15.288" height="3.25" transform="translate(0 0)" fill="#0077ed"/>
        </g>
        <g id="그룹_10992" data-name="그룹 10992" transform="translate(6.019)">
          <rect id="사각형_1910" data-name="사각형 1910" width="3.25" height="15.288" transform="translate(0)" fill="#0077ed"/>
        </g>
      </g>
    </g>
  </g>
</svg>
